# 3ds Max Wavefront OBJ Exporter v0.99 - (c)2007 guruware
# File Created: 14.05.2024 18:04:03

mtllib path.mtl

#
# object Box001
#

v  3.8700 -0.6250 -2.4200
v  4.7100 -0.6250 -2.4200
v  4.7100 -0.6250 2.4200
v  3.8700 -0.6250 2.4200
v  4.7100 0.3750 2.4200
v  4.7100 0.3750 -2.4200
v  3.8700 0.3750 -2.4200
v  3.8700 0.3750 2.4200
v  4.7100 -0.5450 2.5000
v  4.7100 0.2950 2.5000
v  3.8700 0.2950 2.5000
v  3.8700 -0.5450 2.5000
v  4.7900 -0.5450 -2.4200
v  4.7900 0.2950 -2.4200
v  4.7900 0.2950 2.4200
v  4.7900 -0.5450 2.4200
v  3.8700 -0.5450 -2.5000
v  3.8700 0.2950 -2.5000
v  4.7100 0.2950 -2.5000
v  4.7100 -0.5450 -2.5000
v  3.7900 -0.5450 2.4200
v  3.7900 0.2950 2.4200
v  3.7900 0.2950 -2.4200
v  3.7900 -0.5450 -2.4200
v  4.1935 0.3750 1.1739
v  4.1935 0.3750 2.0739
v  -4.2065 0.3750 2.0739
v  -4.2065 0.3750 1.1739
v  -4.2065 0.6250 2.0739
v  4.1935 0.6250 2.0739
v  4.1935 0.6250 1.1739
v  -4.2065 0.6250 1.1739
v  -4.2565 0.4250 2.0739
v  -4.2565 0.5750 2.0739
v  -4.2565 0.5750 1.1739
v  -4.2565 0.4250 1.1739
v  4.1935 0.4250 2.1239
v  4.1935 0.5750 2.1239
v  -4.2065 0.5750 2.1239
v  -4.2065 0.4250 2.1239
v  4.2435 0.4250 1.1739
v  4.2435 0.5750 1.1739
v  4.2435 0.5750 2.0739
v  4.2435 0.4250 2.0739
v  -4.2065 0.4250 1.1239
v  -4.2065 0.5750 1.1239
v  4.1935 0.5750 1.1239
v  4.1935 0.4250 1.1239
v  4.2629 0.3750 -0.7051
v  4.3413 0.3750 0.1915
v  -4.2758 0.3750 0.9454
v  -4.3542 0.3750 0.0488
v  -4.2758 0.6250 0.9454
v  4.3413 0.6250 0.1915
v  4.2629 0.6250 -0.7051
v  -4.3542 0.6250 0.0488
v  -4.3256 0.4250 0.9498
v  -4.3256 0.5750 0.9498
v  -4.4040 0.5750 0.0532
v  -4.4040 0.4250 0.0532
v  4.3457 0.4250 0.2413
v  4.3457 0.5750 0.2413
v  -4.2714 0.5750 0.9952
v  -4.2714 0.4250 0.9952
v  4.3127 0.4250 -0.7094
v  4.3127 0.5750 -0.7094
v  4.3911 0.5750 0.1872
v  4.3911 0.4250 0.1872
v  -4.3586 0.4250 -0.0010
v  -4.3586 0.5750 -0.0010
v  4.2585 0.5750 -0.7549
v  4.2585 0.4250 -0.7549
v  3.9335 0.3750 -2.1642
v  3.9335 0.3750 -0.9142
v  -3.9465 0.3750 -0.9142
v  -3.9465 0.3750 -2.1642
v  -3.9465 0.6250 -0.9142
v  3.9335 0.6250 -0.9142
v  3.9335 0.6250 -2.1642
v  -3.9465 0.6250 -2.1642
v  -4.0065 0.4350 -0.9142
v  -4.0065 0.5650 -0.9142
v  -4.0065 0.5650 -2.1642
v  -4.0065 0.4350 -2.1642
v  3.9335 0.4350 -0.8542
v  3.9335 0.5650 -0.8542
v  -3.9465 0.5650 -0.8542
v  -3.9465 0.4350 -0.8542
v  3.9935 0.4350 -2.1642
v  3.9935 0.5650 -2.1642
v  3.9935 0.5650 -0.9142
v  3.9935 0.4350 -0.9142
v  -3.9465 0.4350 -2.2242
v  -3.9465 0.5650 -2.2242
v  3.9335 0.5650 -2.2242
v  3.9335 0.4350 -2.2242
v  -4.7100 -0.6250 -2.4200
v  -3.8700 -0.6250 -2.4200
v  -3.8700 -0.6250 2.4200
v  -4.7100 -0.6250 2.4200
v  -3.8700 0.3750 2.4200
v  -3.8700 0.3750 -2.4200
v  -4.7100 0.3750 -2.4200
v  -4.7100 0.3750 2.4200
v  -3.8700 -0.5450 2.5000
v  -3.8700 0.2950 2.5000
v  -4.7100 0.2950 2.5000
v  -4.7100 -0.5450 2.5000
v  -3.7900 -0.5450 -2.4200
v  -3.7900 0.2950 -2.4200
v  -3.7900 0.2950 2.4200
v  -3.7900 -0.5450 2.4200
v  -4.7100 -0.5450 -2.5000
v  -4.7100 0.2950 -2.5000
v  -3.8700 0.2950 -2.5000
v  -3.8700 -0.5450 -2.5000
v  -4.7900 -0.5450 2.4200
v  -4.7900 0.2950 2.4200
v  -4.7900 0.2950 -2.4200
v  -4.7900 -0.5450 -2.4200
# 120 vertices

vn -0.3416 -0.8756 -0.3416
vn 0.3416 -0.8756 -0.3416
vn 0.3416 -0.8756 0.3416
vn -0.3416 -0.8756 0.3416
vn 0.3416 0.8756 0.3416
vn 0.3416 0.8756 -0.3416
vn -0.3416 0.8756 -0.3416
vn -0.3416 0.8756 0.3416
vn 0.3416 -0.3416 0.8756
vn 0.3416 0.3416 0.8756
vn -0.3416 0.3416 0.8756
vn -0.3416 -0.3416 0.8756
vn 0.8756 -0.3416 -0.3416
vn 0.8756 0.3416 -0.3416
vn 0.8756 0.3416 0.3416
vn 0.8756 -0.3416 0.3416
vn -0.3416 -0.3416 -0.8756
vn -0.3416 0.3416 -0.8756
vn 0.3416 0.3416 -0.8756
vn 0.3416 -0.3416 -0.8756
vn -0.8756 -0.3416 0.3416
vn -0.8756 0.3416 0.3416
vn -0.8756 0.3416 -0.3416
vn -0.8756 -0.3416 -0.3416
vn 0.3415 -0.8756 0.3416
vn 0.3415 0.8756 0.3416
vn 0.3415 0.3416 -0.8756
vn 0.3415 -0.3416 -0.8756
vn 0.3105 -0.8756 -0.3701
vn 0.3701 -0.8756 0.3105
vn -0.3105 -0.8756 0.3701
vn -0.3701 -0.8756 -0.3105
vn -0.3105 0.8756 0.3701
vn 0.3701 0.8756 0.3105
vn 0.3105 0.8756 -0.3701
vn -0.3701 0.8756 -0.3105
vn -0.8425 -0.3416 0.4166
vn -0.8425 0.3416 0.4166
vn -0.9020 0.3416 -0.2640
vn -0.9020 -0.3416 -0.2640
vn 0.4166 -0.3416 0.8425
vn 0.4166 0.3416 0.8425
vn -0.2640 0.3416 0.9020
vn -0.2640 -0.3416 0.9020
vn 0.8425 -0.3416 -0.4166
vn 0.8425 0.3416 -0.4166
vn 0.9020 0.3416 0.2640
vn 0.9020 -0.3416 0.2640
vn -0.4166 -0.3416 -0.8425
vn -0.4166 0.3416 -0.8425
vn 0.2640 0.3416 -0.9020
vn 0.2640 -0.3416 -0.9020
# 52 vertex normals

vt 0.2704 0.3375 0.0000
vt 0.2215 0.3373 0.0000
vt 0.2225 0.0574 0.0000
vt 0.2715 0.0576 0.0000
vt 0.0797 0.6842 0.0000
vt 0.0798 0.4030 0.0000
vt 0.1286 0.4030 0.0000
vt 0.1286 0.6843 0.0000
vt 0.2226 0.0509 0.0000
vt 0.2228 0.0020 0.0000
vt 0.2717 0.0021 0.0000
vt 0.2715 0.0510 0.0000
vt 0.2149 0.3368 0.0000
vt 0.1667 0.3401 0.0000
vt 0.1667 0.0544 0.0000
vt 0.2160 0.0579 0.0000
vt 0.2704 0.3441 0.0000
vt 0.2702 0.3930 0.0000
vt 0.2213 0.3928 0.0000
vt 0.2215 0.3439 0.0000
vt 0.2780 0.0582 0.0000
vt 0.3262 0.0548 0.0000
vt 0.3262 0.3406 0.0000
vt 0.2769 0.3370 0.0000
vt 0.2766 0.0519 0.0000
vt 0.1351 0.6850 0.0000
vt 0.1293 0.6906 0.0000
vt 0.0790 0.6908 0.0000
vt 0.0732 0.6849 0.0000
vt 0.2175 0.0517 0.0000
vt 0.0732 0.4023 0.0000
vt 0.0790 0.3966 0.0000
vt 0.2164 0.3431 0.0000
vt 0.1294 0.3965 0.0000
vt 0.1351 0.4023 0.0000
vt 0.2755 0.3433 0.0000
vt 0.1677 0.0478 0.0000
vt 0.3253 0.0482 0.0000
vt 0.1676 0.3467 0.0000
vt 0.3253 0.3472 0.0000
vt 0.6204 0.0148 0.0000
vt 0.6727 0.0148 0.0000
vt 0.6727 0.5030 0.0000
vt 0.6204 0.5030 0.0000
vt 0.8031 0.9654 0.0000
vt 0.8031 0.4773 0.0000
vt 0.8555 0.4773 0.0000
vt 0.8555 0.9655 0.0000
vt 0.6727 0.5071 0.0000
vt 0.6727 0.5159 0.0000
vt 0.6204 0.5159 0.0000
vt 0.6204 0.5071 0.0000
vt 0.6768 0.0151 0.0000
vt 0.6855 0.0144 0.0000
vt 0.6855 0.5034 0.0000
vt 0.6768 0.5027 0.0000
vt 0.6204 0.0107 0.0000
vt 0.6204 0.0020 0.0000
vt 0.6727 0.0020 0.0000
vt 0.6727 0.0107 0.0000
vt 0.6162 0.5027 0.0000
vt 0.6076 0.5034 0.0000
vt 0.6076 0.0144 0.0000
vt 0.6163 0.0151 0.0000
vt 0.6172 0.5065 0.0000
vt 0.8596 0.9659 0.0000
vt 0.8559 0.9695 0.0000
vt 0.8027 0.9695 0.0000
vt 0.7990 0.9659 0.0000
vt 0.6758 0.5065 0.0000
vt 0.7990 0.4768 0.0000
vt 0.8027 0.4732 0.0000
vt 0.6758 0.0113 0.0000
vt 0.8559 0.4732 0.0000
vt 0.8596 0.4768 0.0000
vt 0.6173 0.0113 0.0000
vt 0.6847 0.5075 0.0000
vt 0.6083 0.5075 0.0000
vt 0.6848 0.0103 0.0000
vt 0.6083 0.0103 0.0000
vt 0.5881 0.5176 0.0000
vt 0.5357 0.5175 0.0000
vt 0.5358 0.0148 0.0000
vt 0.5881 0.0148 0.0000
vt 0.2242 0.9033 0.0000
vt 0.2242 0.4006 0.0000
vt 0.2766 0.4006 0.0000
vt 0.2766 0.9033 0.0000
vt 0.5358 0.0107 0.0000
vt 0.5358 0.0020 0.0000
vt 0.5881 0.0020 0.0000
vt 0.5881 0.0107 0.0000
vt 0.5316 0.5172 0.0000
vt 0.5230 0.5179 0.0000
vt 0.5230 0.0144 0.0000
vt 0.5317 0.0151 0.0000
vt 0.5881 0.5217 0.0000
vt 0.5881 0.5304 0.0000
vt 0.5357 0.5304 0.0000
vt 0.5357 0.5217 0.0000
vt 0.5922 0.0151 0.0000
vt 0.6009 0.0144 0.0000
vt 0.6009 0.5179 0.0000
vt 0.5922 0.5172 0.0000
vt 0.5912 0.0113 0.0000
vt 0.2807 0.9037 0.0000
vt 0.2770 0.9074 0.0000
vt 0.2238 0.9073 0.0000
vt 0.2202 0.9037 0.0000
vt 0.5326 0.0113 0.0000
vt 0.2202 0.4001 0.0000
vt 0.2238 0.3965 0.0000
vt 0.5326 0.5210 0.0000
vt 0.2770 0.3965 0.0000
vt 0.2807 0.4002 0.0000
vt 0.5912 0.5210 0.0000
vt 0.5237 0.0103 0.0000
vt 0.6002 0.0102 0.0000
vt 0.5237 0.5221 0.0000
vt 0.6002 0.5222 0.0000
vt 0.3439 0.0145 0.0000
vt 0.4166 0.0144 0.0000
vt 0.4166 0.4725 0.0000
vt 0.3439 0.4725 0.0000
vt 0.7817 0.4648 0.0000
vt 0.7817 0.0068 0.0000
vt 0.8544 0.0069 0.0000
vt 0.8544 0.4648 0.0000
vt 0.4166 0.4774 0.0000
vt 0.4166 0.4850 0.0000
vt 0.3439 0.4850 0.0000
vt 0.3439 0.4774 0.0000
vt 0.4216 0.0148 0.0000
vt 0.4291 0.0143 0.0000
vt 0.4291 0.4727 0.0000
vt 0.4215 0.4721 0.0000
vt 0.3439 0.0095 0.0000
vt 0.3439 0.0020 0.0000
vt 0.4166 0.0020 0.0000
vt 0.4166 0.0095 0.0000
vt 0.3390 0.4721 0.0000
vt 0.3315 0.4727 0.0000
vt 0.3315 0.0142 0.0000
vt 0.3390 0.0149 0.0000
vt 0.3402 0.4767 0.0000
vt 0.8593 0.4653 0.0000
vt 0.8549 0.4697 0.0000
vt 0.7811 0.4697 0.0000
vt 0.7768 0.4653 0.0000
vt 0.4203 0.4766 0.0000
vt 0.7768 0.0063 0.0000
vt 0.7812 0.0020 0.0000
vt 0.4203 0.0103 0.0000
vt 0.8549 0.0020 0.0000
vt 0.8593 0.0063 0.0000
vt 0.3402 0.0103 0.0000
vt 0.4281 0.4778 0.0000
vt 0.3325 0.4777 0.0000
vt 0.4281 0.0091 0.0000
vt 0.3325 0.0092 0.0000
vt 0.1056 0.3375 0.0000
vt 0.0567 0.3373 0.0000
vt 0.0578 0.0574 0.0000
vt 0.1067 0.0576 0.0000
vt 0.3469 0.7763 0.0000
vt 0.3469 0.4950 0.0000
vt 0.3958 0.4950 0.0000
vt 0.3958 0.7763 0.0000
vt 0.0578 0.0509 0.0000
vt 0.0580 0.0020 0.0000
vt 0.1069 0.0021 0.0000
vt 0.1067 0.0510 0.0000
vt 0.0502 0.3368 0.0000
vt 0.0020 0.3401 0.0000
vt 0.0020 0.0544 0.0000
vt 0.0512 0.0579 0.0000
vt 0.1056 0.3441 0.0000
vt 0.1054 0.3930 0.0000
vt 0.0565 0.3928 0.0000
vt 0.0567 0.3439 0.0000
vt 0.1133 0.0582 0.0000
vt 0.1615 0.0548 0.0000
vt 0.1615 0.3406 0.0000
vt 0.1122 0.3370 0.0000
vt 0.1118 0.0519 0.0000
vt 0.4023 0.7770 0.0000
vt 0.3965 0.7828 0.0000
vt 0.3461 0.7827 0.0000
vt 0.3404 0.7770 0.0000
vt 0.0527 0.0517 0.0000
vt 0.3404 0.4943 0.0000
vt 0.3462 0.4885 0.0000
vt 0.0516 0.3431 0.0000
vt 0.3966 0.4886 0.0000
vt 0.4023 0.4943 0.0000
vt 0.1107 0.3433 0.0000
vt 0.0029 0.0478 0.0000
vt 0.1606 0.0482 0.0000
vt 0.0029 0.3467 0.0000
vt 0.1605 0.3472 0.0000
# 200 texture coords

o Box001
g Box001
usemtl wire_225143087
s 1
f 1/1/1 2/2/2 3/3/3 4/4/4 
f 5/5/5 6/6/6 7/7/7 8/8/8 
f 9/9/9 10/10/10 11/11/11 12/12/12 
f 13/13/13 14/14/14 15/15/15 16/16/16 
f 17/17/17 18/18/18 19/19/19 20/20/20 
f 21/21/21 22/22/22 23/23/23 24/24/24 
s 2
f 4/4/4 12/25/12 21/21/21 
f 8/8/8 22/26/22 11/27/11 
f 10/28/10 15/29/15 5/5/5 
f 16/16/16 9/30/9 3/3/3 
f 14/31/14 19/32/19 6/6/6 
f 20/33/20 13/13/13 2/2/2 
f 18/34/18 23/35/23 7/7/7 
f 24/24/24 17/36/17 1/1/1 
s 4
f 4/4/4 21/21/21 24/24/24 1/1/1 
s 8
f 1/1/1 17/17/17 20/20/20 2/2/2 
s 4
f 2/2/2 13/13/13 16/16/16 3/3/3 
s 8
f 3/3/3 9/9/9 12/12/12 4/4/4 
s 4
f 8/8/8 11/27/11 10/28/10 5/5/5 
s 8
f 5/5/5 15/29/15 14/31/14 6/6/6 
s 4
f 6/6/6 19/32/19 18/34/18 7/7/7 
s 8
f 7/7/7 23/35/23 22/26/22 8/8/8 
s 16
f 9/30/9 16/16/16 15/15/15 10/37/10 
f 11/38/11 22/22/22 21/21/21 12/25/12 
f 13/13/13 20/33/20 19/39/19 14/14/14 
f 17/36/17 24/24/24 23/23/23 18/40/18 
s 1
f 25/41/2 26/42/25 27/43/4 28/44/1 
f 29/45/8 30/46/26 31/47/6 32/48/7 
f 33/49/21 34/50/22 35/51/23 36/52/24 
f 37/53/9 38/54/10 39/55/11 40/56/12 
f 41/57/13 42/58/14 43/59/15 44/60/16 
f 45/61/17 46/62/18 47/63/27 48/64/28 
s 2
f 28/44/1 36/65/24 45/61/17 
f 32/48/7 46/66/18 35/67/23 
f 34/68/22 39/69/11 29/45/8 
f 40/56/12 33/70/21 27/43/4 
f 38/71/10 43/72/15 30/46/26 
f 44/73/16 37/53/9 26/42/25 
f 42/74/14 47/75/27 31/47/6 
f 48/64/28 41/76/13 25/41/2 
s 4
f 28/44/1 45/61/17 48/64/28 25/41/2 
s 8
f 25/41/2 41/57/13 44/60/16 26/42/25 
s 4
f 26/42/25 37/53/9 40/56/12 27/43/4 
s 8
f 27/43/4 33/49/21 36/52/24 28/44/1 
s 4
f 32/48/7 35/67/23 34/68/22 29/45/8 
s 8
f 29/45/8 39/69/11 38/71/10 30/46/26 
s 4
f 30/46/26 43/72/15 42/74/14 31/47/6 
s 8
f 31/47/6 47/75/27 46/66/18 32/48/7 
s 16
f 33/70/21 40/56/12 39/55/11 34/77/22 
f 35/78/23 46/62/18 45/61/17 36/65/24 
f 37/53/9 44/73/16 43/79/15 38/54/10 
f 41/76/13 48/64/28 47/63/27 42/80/14 
s 1
f 49/81/29 50/82/30 51/83/31 52/84/32 
f 53/85/33 54/86/34 55/87/35 56/88/36 
f 57/89/37 58/90/38 59/91/39 60/92/40 
f 61/93/41 62/94/42 63/95/43 64/96/44 
f 65/97/45 66/98/46 67/99/47 68/100/48 
f 69/101/49 70/102/50 71/103/51 72/104/52 
s 2
f 52/84/32 60/105/40 69/101/49 
f 56/88/36 70/106/50 59/107/39 
f 58/108/38 63/109/43 53/85/33 
f 64/96/44 57/110/37 51/83/31 
f 62/111/42 67/112/47 54/86/34 
f 68/113/48 61/93/41 50/82/30 
f 66/114/46 71/115/51 55/87/35 
f 72/104/52 65/116/45 49/81/29 
s 4
f 52/84/32 69/101/49 72/104/52 49/81/29 
s 8
f 49/81/29 65/97/45 68/100/48 50/82/30 
s 4
f 50/82/30 61/93/41 64/96/44 51/83/31 
s 8
f 51/83/31 57/89/37 60/92/40 52/84/32 
s 4
f 56/88/36 59/107/39 58/108/38 53/85/33 
s 8
f 53/85/33 63/109/43 62/111/42 54/86/34 
s 4
f 54/86/34 67/112/47 66/114/46 55/87/35 
s 8
f 55/87/35 71/115/51 70/106/50 56/88/36 
s 16
f 57/110/37 64/96/44 63/95/43 58/117/38 
f 59/118/39 70/102/50 69/101/49 60/105/40 
f 61/93/41 68/113/48 67/119/47 62/94/42 
f 65/116/45 72/104/52 71/103/51 66/120/46 
s 1
f 73/121/2 74/122/25 75/123/4 76/124/1 
f 77/125/8 78/126/26 79/127/6 80/128/7 
f 81/129/21 82/130/22 83/131/23 84/132/24 
f 85/133/9 86/134/10 87/135/11 88/136/12 
f 89/137/13 90/138/14 91/139/15 92/140/16 
f 93/141/17 94/142/18 95/143/27 96/144/28 
s 2
f 76/124/1 84/145/24 93/141/17 
f 80/128/7 94/146/18 83/147/23 
f 82/148/22 87/149/11 77/125/8 
f 88/136/12 81/150/21 75/123/4 
f 86/151/10 91/152/15 78/126/26 
f 92/153/16 85/133/9 74/122/25 
f 90/154/14 95/155/27 79/127/6 
f 96/144/28 89/156/13 73/121/2 
s 4
f 76/124/1 93/141/17 96/144/28 73/121/2 
s 8
f 73/121/2 89/137/13 92/140/16 74/122/25 
s 4
f 74/122/25 85/133/9 88/136/12 75/123/4 
s 8
f 75/123/4 81/129/21 84/132/24 76/124/1 
s 4
f 80/128/7 83/147/23 82/148/22 77/125/8 
s 8
f 77/125/8 87/149/11 86/151/10 78/126/26 
s 4
f 78/126/26 91/152/15 90/154/14 79/127/6 
s 8
f 79/127/6 95/155/27 94/146/18 80/128/7 
s 16
f 81/150/21 88/136/12 87/135/11 82/157/22 
f 83/158/23 94/142/18 93/141/17 84/145/24 
f 85/133/9 92/153/16 91/159/15 86/134/10 
f 89/156/13 96/144/28 95/143/27 90/160/14 
s 1
f 97/161/1 98/162/2 99/163/3 100/164/4 
f 101/165/5 102/166/6 103/167/7 104/168/8 
f 105/169/9 106/170/10 107/171/11 108/172/12 
f 109/173/13 110/174/14 111/175/15 112/176/16 
f 113/177/17 114/178/18 115/179/19 116/180/20 
f 117/181/21 118/182/22 119/183/23 120/184/24 
s 2
f 100/164/4 108/185/12 117/181/21 
f 104/168/8 118/186/22 107/187/11 
f 106/188/10 111/189/15 101/165/5 
f 112/176/16 105/190/9 99/163/3 
f 110/191/14 115/192/19 102/166/6 
f 116/193/20 109/173/13 98/162/2 
f 114/194/18 119/195/23 103/167/7 
f 120/184/24 113/196/17 97/161/1 
s 4
f 100/164/4 117/181/21 120/184/24 97/161/1 
s 8
f 97/161/1 113/177/17 116/180/20 98/162/2 
s 4
f 98/162/2 109/173/13 112/176/16 99/163/3 
s 8
f 99/163/3 105/169/9 108/172/12 100/164/4 
s 4
f 104/168/8 107/187/11 106/188/10 101/165/5 
s 8
f 101/165/5 111/189/15 110/191/14 102/166/6 
s 4
f 102/166/6 115/192/19 114/194/18 103/167/7 
s 8
f 103/167/7 119/195/23 118/186/22 104/168/8 
s 16
f 105/190/9 112/176/16 111/175/15 106/197/10 
f 107/198/11 118/182/22 117/181/21 108/185/12 
f 109/173/13 116/193/20 115/199/19 110/174/14 
f 113/196/17 120/184/24 119/183/23 114/200/18 
# 90 polygons - 40 triangles

