#File written by LIBRIZOMUV. Compilation :Jan 29 2019,17:17:16
mtllib Coin rezom uv:mtl
#begin vertices
v 1.5 0.07 -0
v 1.3858 0.07 -0.574
v 1.3858 0.58 -0.574
v 1.5 0.58 -0
v 1.0607 0.07 -1.0607
v 1.0607 0.58 -1.0607
v 0.574 0.07 -1.3858
v 0.574 0.58 -1.3858
v -0 0.07 -1.5
v -0 0.58 -1.5
v -0.574 0.07 -1.3858
v -0.574 0.58 -1.3858
v -1.0607 0.07 -1.0607
v -1.0607 0.58 -1.0607
v -1.3858 0.07 -0.574
v -1.3858 0.58 -0.574
v -1.5 0.07 -0
v -1.5 0.58 -0
v -1.3858 0.07 0.574
v -1.3858 0.58 0.574
v -1.0607 0.07 1.0607
v -1.0607 0.58 1.0607
v -0.574 0.07 1.3858
v -0.574 0.58 1.3858
v 0 0.07 1.5
v 0 0.58 1.5
v 0.574 0.07 1.3858
v 0.574 0.58 1.3858
v 1.0607 0.07 1.0607
v 1.0607 0.58 1.0607
v 1.3858 0.07 0.574
v 1.3858 0.58 0.574
v 1.3199 0 -0.5467
v 1.4286 0 0
v -0 0 -0
v 1.3199 0 0.5467
v 1.0102 0 1.0102
v 0.5467 0 1.3199
v 0 0 1.4286
v -0.5467 0 1.3199
v -1.0102 0 1.0102
v -1.3199 0 0.5467
v -1.4286 0 -0
v -1.3199 0 -0.5467
v -1.0102 0 -1.0102
v -0.5467 0 -1.3199
v -0 0 -1.4286
v 0.5467 0 -1.3199
v 1.0102 0 -1.0102
v 1.4286 0.65 0
v 1.3199 0.65 -0.5467
v 1.1503 0.65 -0.4765
v 1.2451 0.65 0
v 1.0102 0.65 -1.0102
v 0.8804 0.65 -0.8804
v 0.5467 0.65 -1.3199
v 0.4765 0.65 -1.1503
v -0 0.65 -1.4286
v -0 0.65 -1.2451
v -0.5467 0.65 -1.3199
v -0.4765 0.65 -1.1503
v -1.0102 0.65 -1.0102
v -0.8804 0.65 -0.8804
v -1.3199 0.65 -0.5467
v -1.1503 0.65 -0.4765
v -1.4286 0.65 -0
v -1.2451 0.65 -0
v -1.3199 0.65 0.5467
v -1.1503 0.65 0.4765
v -1.0102 0.65 1.0102
v -0.8804 0.65 0.8804
v -0.5467 0.65 1.3199
v -0.4765 0.65 1.1503
v 0 0.65 1.4286
v 0 0.65 1.2451
v 0.5467 0.65 1.3199
v 0.4765 0.65 1.1503
v 1.0102 0.65 1.0102
v 0.8804 0.65 0.8804
v 1.3199 0.65 0.5467
v 1.1503 0.65 0.4765
v 1.1941 0.6 0
v 1.1032 0.6 -0.457
v 1.1032 0.5054 -0.457
v 1.1941 0.5054 0
v 0.8444 0.6 -0.8444
v 0.8444 0.5054 -0.8444
v 0.457 0.6 -1.1032
v 0.457 0.5054 -1.1032
v -0 0.6 -1.1941
v -0 0.5054 -1.1941
v -0.457 0.6 -1.1032
v -0.457 0.5054 -1.1032
v -0.8444 0.6 -0.8444
v -0.8444 0.5054 -0.8444
v -1.1032 0.6 -0.457
v -1.1032 0.5054 -0.457
v -1.1941 0.6 -0
v -1.1941 0.5054 -0
v -1.1032 0.6 0.457
v -1.1032 0.5054 0.457
v -0.8444 0.6 0.8444
v -0.8444 0.5054 0.8444
v -0.457 0.6 1.1032
v -0.457 0.5054 1.1032
v 0 0.6 1.1941
v 0 0.5054 1.1941
v 0.457 0.6 1.1032
v 0.457 0.5054 1.1032
v 0.8444 0.6 0.8444
v 0.8444 0.5054 0.8444
v 1.1032 0.6 0.457
v 1.1032 0.5054 0.457
v -0 0.5054 0
#end vertices

#begin 153 textures vertices 
vt 0.01675343 0.5697439 0
vt 0.01318688 0.5007587 0
vt 0.07247311 0.500467 0
vt 0.07564027 0.5633175 0
vt 0.01676753 0.4317377 0
vt 0.07576023 0.4376885 0
vt 0.02754049 0.3634675 0
vt 0.08562006 0.3756094 0
vt 0.0453374 0.296752 0
vt 0.1017483 0.3147909 0
vt 0.07004584 0.2322975 0
vt 0.1242995 0.2560127 0
vt 0.1013469 0.1707725 0
vt 0.1528035 0.1998709 0
vt 0.1389322 0.1130514 0
vt 0.1871992 0.1468789 0
vt 0.1819863 0.0596312 0
vt 0.2272828 0.09711733 0
vt 0.2283386 0.007932549 0
vt 0.2741341 0.05148845 0
vt 0.1825018 0.9414761 0
vt 0.2269732 0.9039451 0
vt 0.1395831 0.8880468 0
vt 0.1873969 0.8539605 0
vt 0.1019253 0.8305389 0
vt 0.1530215 0.8009979 0
vt 0.0704688 0.7692136 0
vt 0.1244227 0.7448803 0
vt 0.04553558 0.7047678 0
vt 0.1017761 0.6861965 0
vt 0.02757079 0.6379839 0
vt 0.08553367 0.6254488 0
vt 0.5504688 0.301978 0
vt 0.4907904 0.3266864 0
vt 0.4585071 0.1643198 0
vt 0.4261991 0.3266864 0
vt 0.3665218 0.3019618 0
vt 0.3208489 0.2562815 0
vt 0.2961404 0.196603 0
vt 0.2961404 0.1320118 0
vt 0.3208651 0.07233445 0
vt 0.3665454 0.02666159 0
vt 0.4262238 0.001953125 0
vt 0.4908151 0.001953125 0
vt 0.5504924 0.0266778 0
vt 0.5961653 0.07235806 0
vt 0.6208738 0.1320365 0
vt 0.6208738 0.1966278 0
vt 0.5961491 0.2563051 0
vt 0.08722901 0.5621237 0
vt 0.08397667 0.5004709 0
vt 0.1051097 0.500645 0
vt 0.1086511 0.5599504 0
vt 0.08738237 0.4389273 0
vt 0.1078583 0.4411483 0
vt 0.09686204 0.3780373 0
vt 0.117541 0.382372 0
vt 0.1128249 0.3183899 0
vt 0.1332926 0.3250557 0
vt 0.1347986 0.2606638 0
vt 0.154022 0.2693455 0
vt 0.1628742 0.2056862 0
vt 0.1805919 0.2160263 0
vt 0.1963426 0.153659 0
vt 0.2131682 0.166143 0
vt 0.2355239 0.1051198 0
vt 0.2505867 0.1202217 0
vt 0.2811344 0.06168547 0
vt 0.2921576 0.08095019 0
vt 0.2354065 0.8961867 0
vt 0.2501979 0.8818036 0
vt 0.1966427 0.8473164 0
vt 0.2135158 0.8349068 0
vt 0.1630921 0.7952281 0
vt 0.1816918 0.7845358 0
vt 0.1349115 0.7402051 0
vt 0.1542299 0.7317378 0
vt 0.1128816 0.6826042 0
vt 0.1324711 0.6763033 0
vt 0.09678752 0.6231099 0
vt 0.1174358 0.61871 0
vt 0.1169327 0.5591263 0
vt 0.1133924 0.5006345 0
vt 0.1244114 0.5006013 0
vt 0.7879875 0.2733786 0
vt 0.116042 0.4420429 0
vt 0.1270604 0.4432565 0
vt 0.1256258 0.3841662 0
vt 0.1363756 0.3865864 0
vt 0.1412022 0.3276388 0
vt 0.1516772 0.3310592 0
vt 0.1615936 0.2726766 0
vt 0.1716999 0.2770817 0
vt 0.1876757 0.2201767 0
vt 0.1971155 0.2257083 0
vt 0.2197136 0.1711479 0
vt 0.2284271 0.1778641 0
vt 0.2564499 0.1261538 0
vt 0.2642847 0.1339575 0
vt 0.2967713 0.08802714 0
vt 0.3041345 0.09630945 0
vt 0.2561433 0.8760603 0
vt 0.2641928 0.8684269 0
vt 0.2201864 0.830068 0
vt 0.2291039 0.8236331 0
vt 0.1888828 0.7803882 0
vt 0.1984132 0.7748764 0
vt 0.1617693 0.728335 0
vt 0.1717981 0.7237579 0
vt 0.1403034 0.6737891 0
vt 0.1507309 0.6704407 0
vt 0.1255516 0.6170849 0
vt 0.1363741 0.6149724 0
vt 0.7609934 0.1376658 0
vt 0.6459364 0.06078616 0
vt 0.6841137 0.2527229 0
vt 0.7339933 0.2733786 0
vt 0.684115 0.02261519 0
vt 0.6459428 0.2145443 0
vt 0.7339994 0.001953125 0
vt 0.6252807 0.1646599 0
vt 0.7879936 0.001953125 0
vt 0.6252807 0.1106657 0
vt 0.8378731 0.02260881 0
vt 0.8760441 0.06078739 0
vt 0.8967062 0.1106718 0
vt 0.8967062 0.164666 0
vt 0.8760505 0.2145455 0
vt 0.8378719 0.2527165 0
vt 0.1279003 0.5580534 0
vt 0.01654385 0.3611758 0
vt 0.1304176 0.8945434 0
vt 0.1733722 0.9485255 0
vt 0.2165321 0.9980469 0
vt 0.1729159 0.0525177 0
vt 0.1297198 0.1066332 0
vt 0.0912699 0.165041 0
vt 0.05977172 0.2277613 0
vt 0.03429104 0.2931954 0
vt 0.005221837 0.4305623 0
vt 0.001953125 0.5007976 0
vt 0.00521646 0.5710001 0
vt 0.0165995 0.6403811 0
vt 0.03451792 0.7084001 0
vt 0.06022375 0.7738144 0
vt 0.09188579 0.836342 0
vt 0.2807879 0.9414816 0
vt 0.2737988 0.9516875 0
vt 0.2967873 0.9149233 0
vt 0.2921679 0.9220257 0
vt 0.3041345 0.9067504 0
vt 0.2267157 0.9920686 0
vt 0.2181094 0.001953125 0
#end 153 textures vertices 

#begin 114 normals 
vn 0.9286 -0.371 -0
vn 0.858 -0.371 -0.3554
vn 0.858 0.371 -0.3554
vn 0.9286 0.371 -0
vn 0.6567 -0.371 -0.6567
vn 0.6567 0.371 -0.6567
vn 0.3554 -0.371 -0.858
vn 0.3554 0.371 -0.858
vn 0 -0.371 -0.9286
vn 0 0.371 -0.9286
vn -0.3554 -0.371 -0.858
vn -0.3554 0.371 -0.858
vn -0.6567 -0.371 -0.6566
vn -0.6567 0.371 -0.6566
vn -0.858 -0.371 -0.3554
vn -0.858 0.371 -0.3554
vn -0.9286 -0.371 -0
vn -0.9286 0.371 -0
vn -0.858 -0.371 0.3554
vn -0.858 0.371 0.3554
vn -0.6567 -0.371 0.6567
vn -0.6567 0.371 0.6566
vn -0.3554 -0.371 0.8579
vn -0.3554 0.371 0.8579
vn 0 -0.371 0.9286
vn 0 0.371 0.9286
vn 0.3554 -0.371 0.8579
vn 0.3554 0.371 0.8579
vn 0.6567 -0.371 0.6566
vn 0.6567 0.371 0.6567
vn 0.858 -0.371 0.3554
vn 0.858 0.371 0.3554
vn 0.3855 -0.9088 -0.1597
vn 0.4172 -0.9088 -0
vn 0 -1 -0
vn 0.3855 -0.9088 0.1597
vn 0.295 -0.9088 0.295
vn 0.1597 -0.9088 0.3855
vn 0 -0.9088 0.4172
vn -0.1597 -0.9088 0.3855
vn -0.295 -0.9088 0.295
vn -0.3855 -0.9088 0.1597
vn -0.4172 -0.9088 -0
vn -0.3855 -0.9088 -0.1597
vn -0.295 -0.9088 -0.295
vn -0.1597 -0.9088 -0.3855
vn 0 -0.9088 -0.4172
vn 0.1597 -0.9088 -0.3855
vn 0.295 -0.9088 -0.295
vn 0.4172 0.9088 -0
vn 0.3855 0.9088 -0.1597
vn -0.3107 0.9417 0.1287
vn -0.3363 0.9417 0
vn 0.295 0.9088 -0.295
vn -0.2378 0.9417 0.2378
vn 0.1597 0.9088 -0.3855
vn -0.1287 0.9417 0.3107
vn 0 0.9088 -0.4172
vn 0 0.9417 0.3363
vn -0.1597 0.9088 -0.3855
vn 0.1287 0.9417 0.3107
vn -0.295 0.9088 -0.295
vn 0.2378 0.9417 0.2378
vn -0.3855 0.9088 -0.1597
vn 0.3107 0.9417 0.1287
vn -0.4172 0.9088 -0
vn 0.3363 0.9417 0
vn -0.3855 0.9088 0.1597
vn 0.3107 0.9417 -0.1287
vn -0.295 0.9088 0.295
vn 0.2378 0.9417 -0.2378
vn -0.1597 0.9088 0.3855
vn 0.1287 0.9417 -0.3107
vn 0 0.9088 0.4172
vn 0 0.9417 -0.3363
vn 0.1597 0.9088 0.3855
vn -0.1287 0.9417 -0.3107
vn 0.295 0.9088 0.295
vn -0.2378 0.9417 -0.2378
vn 0.3855 0.9088 0.1597
vn -0.3107 0.9417 -0.1287
vn -0.9141 0.4055 -0
vn -0.8445 0.4055 0.3498
vn -0.6894 0.6658 0.2856
vn -0.7462 0.6658 -0
vn -0.6464 0.4055 0.6464
vn -0.5276 0.6657 0.5276
vn -0.3498 0.4055 0.8445
vn -0.2856 0.6658 0.6894
vn -0 0.4055 0.9141
vn 0 0.6658 0.7461
vn 0.3498 0.4055 0.8445
vn 0.2855 0.6658 0.6893
vn 0.6464 0.4055 0.6464
vn 0.5276 0.6658 0.5276
vn 0.8445 0.4055 0.3498
vn 0.6894 0.6658 0.2856
vn 0.9141 0.4055 -0
vn 0.7462 0.6658 -0
vn 0.8445 0.4055 -0.3498
vn 0.6894 0.6657 -0.2856
vn 0.6464 0.4055 -0.6464
vn 0.5276 0.6657 -0.5276
vn 0.3498 0.4055 -0.8445
vn 0.2856 0.6657 -0.6894
vn -0 0.4055 -0.9141
vn -0 0.6657 -0.7462
vn -0.3498 0.4055 -0.8445
vn -0.2856 0.6657 -0.6894
vn -0.6464 0.4055 -0.6464
vn -0.5276 0.6657 -0.5276
vn -0.8445 0.4055 -0.3498
vn -0.6894 0.6657 -0.2856
vn -0 1 -0
#end 114 normals 

#begin 128 faces
o Cylinder001
usemtl wire_148177027
g Cylinder001
s 1
f 1/1/1 2/2/2 3/3/3 4/4/4 
f 2/2/2 5/5/5 6/6/6 3/3/3 
f 5/5/5 7/7/7 8/8/8 6/6/6 
f 7/7/7 9/9/9 10/10/10 8/8/8 
f 9/9/9 11/11/11 12/12/12 10/10/10 
f 11/11/11 13/13/13 14/14/14 12/12/12 
f 13/13/13 15/15/15 16/16/16 14/14/14 
f 15/15/15 17/17/17 18/18/18 16/16/16 
f 17/17/17 19/19/19 20/20/20 18/18/18 
f 19/152/19 21/21/21 22/22/22 20/148/20 
f 21/21/21 23/23/23 24/24/24 22/22/22 
f 23/23/23 25/25/25 26/26/26 24/24/24 
f 25/25/25 27/27/27 28/28/28 26/26/26 
f 27/27/27 29/29/29 30/30/30 28/28/28 
f 29/29/29 31/31/31 32/32/32 30/30/30 
f 31/31/31 1/1/1 4/4/4 32/32/32 
f 33/33/33 34/34/34 35/35/35 
f 34/34/34 36/36/36 35/35/35 
f 36/36/36 37/37/37 35/35/35 
f 37/37/37 38/38/38 35/35/35 
f 38/38/38 39/39/39 35/35/35 
f 39/39/39 40/40/40 35/35/35 
f 40/40/40 41/41/41 35/35/35 
f 41/41/41 42/42/42 35/35/35 
f 42/42/42 43/43/43 35/35/35 
f 43/43/43 44/44/44 35/35/35 
f 44/44/44 45/45/45 35/35/35 
f 45/45/45 46/46/46 35/35/35 
f 46/46/46 47/47/47 35/35/35 
f 47/47/47 48/48/48 35/35/35 
f 48/48/48 49/49/49 35/35/35 
f 49/49/49 33/33/33 35/35/35 
f 50/50/50 51/51/51 52/52/52 53/53/53 
f 51/51/51 54/54/54 55/55/55 52/52/52 
f 54/54/54 56/56/56 57/57/57 55/55/55 
f 56/56/56 58/58/58 59/59/59 57/57/57 
f 58/58/58 60/60/60 61/61/61 59/59/59 
f 60/60/60 62/62/62 63/63/63 61/61/61 
f 62/62/62 64/64/64 65/65/65 63/63/63 
f 64/64/64 66/66/66 67/67/67 65/65/65 
f 66/66/66 68/68/68 69/69/69 67/67/67 
f 68/147/68 70/70/70 71/71/71 69/150/69 
f 70/70/70 72/72/72 73/73/73 71/71/71 
f 72/72/72 74/74/74 75/75/75 73/73/73 
f 74/74/74 76/76/76 77/77/77 75/75/75 
f 76/76/76 78/78/78 79/79/79 77/77/77 
f 78/78/78 80/80/80 81/81/81 79/79/79 
f 80/80/80 50/50/50 53/53/53 81/81/81 
s 2
f 82/82/82 83/83/83 84/84/84 85/130/85 
f 83/83/83 86/86/86 87/87/87 84/84/84 
f 86/86/86 88/88/88 89/89/89 87/87/87 
f 88/88/88 90/90/90 91/91/91 89/89/89 
f 90/90/90 92/92/92 93/93/93 91/91/91 
f 92/92/92 94/94/94 95/95/95 93/93/93 
f 94/94/94 96/96/96 97/97/97 95/95/95 
f 96/96/96 98/98/98 99/99/99 97/97/97 
f 98/98/98 100/100/100 101/101/101 99/99/99 
f 100/149/100 102/102/102 103/103/103 101/151/101 
f 102/102/102 104/104/104 105/105/105 103/103/103 
f 104/104/104 106/106/106 107/107/107 105/105/105 
f 106/106/106 108/108/108 109/109/109 107/107/107 
f 108/108/108 110/110/110 111/111/111 109/109/109 
f 110/110/110 112/112/112 113/113/113 111/111/111 
f 112/112/112 82/82/82 85/130/85 113/113/113 
f 34/142/34 33/141/33 2/2/2 1/1/1 
f 36/143/36 34/142/34 1/1/1 31/31/31 
f 37/144/37 36/143/36 31/31/31 29/29/29 
f 38/145/38 37/144/37 29/29/29 27/27/27 
f 39/146/39 38/145/38 27/27/27 25/25/25 
f 40/132/40 39/146/39 25/25/25 23/23/23 
f 41/133/41 40/132/40 23/23/23 21/21/21 
f 42/134/42 41/133/41 21/21/21 19/152/19 
f 43/135/43 42/153/42 19/19/19 17/17/17 
f 44/136/44 43/135/43 17/17/17 15/15/15 
f 45/137/45 44/136/44 15/15/15 13/13/13 
f 46/138/46 45/137/45 13/13/13 11/11/11 
f 47/139/47 46/138/46 11/11/11 9/9/9 
f 48/131/48 47/139/47 9/9/9 7/7/7 
f 49/140/49 48/131/48 7/7/7 5/5/5 
f 33/141/33 49/140/49 5/5/5 2/2/2 
f 51/51/51 50/50/50 4/4/4 3/3/3 
f 54/54/54 51/51/51 3/3/3 6/6/6 
f 56/56/56 54/54/54 6/6/6 8/8/8 
f 58/58/58 56/56/56 8/8/8 10/10/10 
f 60/60/60 58/58/58 10/10/10 12/12/12 
f 62/62/62 60/60/60 12/12/12 14/14/14 
f 64/64/64 62/62/62 14/14/14 16/16/16 
f 66/66/66 64/64/64 16/16/16 18/18/18 
f 68/68/68 66/66/66 18/18/18 20/20/20 
f 70/70/70 68/147/68 20/148/20 22/22/22 
f 72/72/72 70/70/70 22/22/22 24/24/24 
f 74/74/74 72/72/72 24/24/24 26/26/26 
f 76/76/76 74/74/74 26/26/26 28/28/28 
f 78/78/78 76/76/76 28/28/28 30/30/30 
f 80/80/80 78/78/78 30/30/30 32/32/32 
f 50/50/50 80/80/80 32/32/32 4/4/4 
s 4
f 53/53/53 52/52/52 83/83/83 82/82/82 
f 52/52/52 55/55/55 86/86/86 83/83/83 
f 55/55/55 57/57/57 88/88/88 86/86/86 
f 57/57/57 59/59/59 90/90/90 88/88/88 
f 59/59/59 61/61/61 92/92/92 90/90/90 
f 61/61/61 63/63/63 94/94/94 92/92/92 
f 63/63/63 65/65/65 96/96/96 94/94/94 
f 65/65/65 67/67/67 98/98/98 96/96/96 
f 67/67/67 69/69/69 100/100/100 98/98/98 
f 69/150/69 71/71/71 102/102/102 100/149/100 
f 71/71/71 73/73/73 104/104/104 102/102/102 
f 73/73/73 75/75/75 106/106/106 104/104/104 
f 75/75/75 77/77/77 108/108/108 106/106/106 
f 77/77/77 79/79/79 110/110/110 108/108/108 
f 79/79/79 81/81/81 112/112/112 110/110/110 
f 81/81/81 53/53/53 82/82/82 112/112/112 
s off
f 113/129/113 85/85/85 114/114/114 
f 85/85/85 84/117/84 114/114/114 
f 84/117/84 87/116/87 114/114/114 
f 87/116/87 89/119/89 114/114/114 
f 89/119/89 91/121/91 114/114/114 
f 91/121/91 93/123/93 114/114/114 
f 93/123/93 95/115/95 114/114/114 
f 95/115/95 97/118/97 114/114/114 
f 97/118/97 99/120/99 114/114/114 
f 99/120/99 101/122/101 114/114/114 
f 101/122/101 103/124/103 114/114/114 
f 103/124/103 105/125/105 114/114/114 
f 105/125/105 107/126/107 114/114/114 
f 107/126/107 109/127/109 114/114/114 
f 109/127/109 111/128/111 114/114/114 
f 111/128/111 113/129/113 114/114/114 
#end 128 faces

#begin properties
#ZOMPROPERTIES_02 table {Mesh table {IslandsUVW table {0 table {TopoStable table {Selected bool false Visible bool false } } 1 table {TopoStable table {Selected bool false Visible bool false } } 2 table {TopoStable table {Selected bool false Visible bool false } } } SymPlane table {Point vector3d 0 0 0 Normal vector3d 1 0 0 Threshold double 0.01 Enabled bool false EdgeID int -1 SymEdgeID int -1 UPos double 0.5 LocalMode bool false } RootGroup CSubMeshGroup {Children table {Tile_0_0 CSubMeshGroup {Children table {} IslandIDs ints { 0 1 2 } BBoxUV box3d 0 0 0 0 0 0 BBox3D box3d 0 0 0 0 0 0 AreaUV double 0.2678276 Area3D double 0 IsRoot bool false TopoStable table {Selected bool false Box box3d 0 1 0 1 0 1 U int 0 V int 0 NU int 0 NV int 0 Tiling vector3d 1 1 1 TileRatioMode string "1:1" } IsTile bool true } } IslandIDs ints { } BBoxUV box3d 0 0 0 0 0 0 BBox3D box3d 0 0 0 0 0 0 AreaUV double 0 Area3D double 0 IsRoot bool true TopoStable table {Selected bool false Box box3d 0 1 0 1 0 1 U int 0 V int 0 NU int 1 NV int 1 Tiling vector3d 1 1 1 TileRatioMode string "1:1" Pack table {Rotate table {Mode int 2 Min double 0 Max double 180 Step double 0 } SpacingSize double 0.00390625 MarginSize double 0.001953125 Resolution int 200 Scaling table {Mode int 0 } LayoutScalingMode int 2 MaxMutations int 1 } } IsTile bool false } Maps table {Density table {PrimType string "Polygon" Size int 1 DefaultValue double 1 ScaleType string "Log" MinValue double 0.1 MaxValue double 4 Data doubles { r 128 1 } } Pin table {PrimType string "Vertex" Size int 1 DefaultValue double 0 ScaleType string "Normalized" MinValue double 0 MaxValue double 1 Data doubles { r 153 0 } } Protect table {PrimType string "Vertex" Size int 1 DefaultValue double 0 ScaleType string "Normalized" MinValue double -1 MaxValue double 1 Data doubles { r 153 0 } } } } }
#end properties

#begin 0 fatal error vertex (that RizomUV cannot handle)
#end 0 fatal error vertex (that RizomUV cannot handle)

#begin 0 error vertex
#end 0 error vertex
