# 3ds Max Wavefront OBJ Exporter v0.99 - (c)2007 guruware
# File Created: 14.05.2024 23:05:14

mtllib Surichen.mtl

#
# object Cylinder001
#

v  0.0442 -0.0302 -0.0441
v  0.0442 0.0166 -0.0441
v  0.1998 -0.0176 -0.0000
v  0.1998 -0.0302 -0.0000
v  -0.0485 -0.0302 -0.0485
v  -0.0485 0.0139 -0.0485
v  0.0001 -0.0176 -0.1997
v  0.0001 -0.0302 -0.1997
v  -0.0441 -0.0302 0.0441
v  -0.0441 0.0166 0.0441
v  -0.1998 -0.0176 -0.0000
v  -0.1998 -0.0302 -0.0000
v  0.0485 -0.0302 0.0485
v  0.0485 0.0139 0.0485
v  0.0001 -0.0176 0.1997
v  0.0001 -0.0302 0.1997
v  0.0001 -0.0569 -0.0000
v  0.0001 0.0436 -0.0000
# 18 vertices

vn 0.5392 -0.6469 -0.5392
vn 0.5111 0.6911 -0.5111
vn 0.9081 0.4184 -0.0147
vn 0.8607 -0.5089 -0.0142
vn -0.5331 -0.6569 -0.5331
vn -0.5174 0.6816 -0.5174
vn 0.0147 0.4184 -0.9081
vn 0.0142 -0.5089 -0.8607
vn -0.5392 -0.6469 0.5392
vn -0.5111 0.6911 0.5111
vn -0.9081 0.4184 0.0147
vn -0.8607 -0.5089 0.0142
vn 0.5331 -0.6569 0.5331
vn 0.5174 0.6816 0.5174
vn -0.0147 0.4184 0.9081
vn -0.0142 -0.5089 0.8607
vn -0.0000 -1.0000 -0.0000
vn 0.0000 1.0000 0.0000
# 18 vertex normals

vt -0.1250 0.0000 1.0000
vt -0.1250 1.0000 1.0000
vt -0.2500 1.0000 1.0000
vt -0.2500 0.0000 1.0000
vt 0.1250 0.0000 1.0000
vt 0.1250 1.0000 1.0000
vt 0.0000 1.0000 1.0000
vt 0.0000 0.0000 1.0000
vt 0.3750 0.0000 1.0000
vt 0.3750 1.0000 1.0000
vt 0.2500 1.0000 1.0000
vt 0.2500 0.0000 1.0000
vt 0.6250 0.0000 1.0000
vt 0.6250 1.0000 1.0000
vt 0.5000 1.0000 1.0000
vt 0.5000 0.0000 1.0000
vt 0.7500 0.0000 1.0000
vt 0.7500 1.0000 1.0000
vt 0.2500 1.0000 0.5000
vt 0.6250 1.0000 0.0000
vt 1.0000 1.0000 -1.0000
vt 0.3750 1.0000 0.0000
# 22 texture coords

o Cylinder001
g Cylinder001
usemtl wire_061135006
s 8
f 1/1/1 2/2/2 3/3/3 4/4/4 
f 5/5/5 6/6/6 7/7/7 8/8/8 
f 9/9/9 10/10/10 11/11/11 12/12/12 
f 13/13/13 14/14/14 15/15/15 16/16/16 
f 1/1/1 8/8/8 7/7/7 2/2/2 
f 9/9/9 16/16/16 15/15/15 10/10/10 
f 5/5/5 12/12/12 11/11/11 6/6/6 
f 13/13/13 4/17/4 3/18/3 14/14/14 
s off
f 8/8/8 1/1/1 17/5/17 
f 1/1/1 4/4/4 17/5/17 
f 4/4/4 13/5/13 17/5/17 
f 13/5/13 16/16/16 17/5/17 
f 16/16/16 9/9/9 17/5/17 
f 9/9/9 12/12/12 17/5/17 
f 12/12/12 5/5/5 17/5/17 
f 5/5/5 8/8/8 17/5/17 
f 2/2/2 7/7/7 18/19/18 
f 7/7/7 6/6/6 18/19/18 
f 6/6/6 11/11/11 18/19/18 
f 11/11/11 10/20/10 18/19/18 
f 10/20/10 15/21/15 18/19/18 
f 15/21/15 14/22/14 18/19/18 
f 14/22/14 3/3/3 18/19/18 
f 3/3/3 2/2/2 18/19/18 
# 8 polygons - 16 triangles

#
# object Cylinder002
#

v  0.4695 -0.0237 -0.0208
v  0.4566 -0.0237 -0.0401
v  0.4566 0.0237 -0.0401
v  0.4695 0.0237 -0.0208
v  0.4372 -0.0237 -0.0531
v  0.4372 0.0237 -0.0531
v  0.3916 -0.0237 -0.0531
v  0.3722 -0.0237 -0.0401
v  0.3722 0.0237 -0.0401
v  0.3916 0.0237 -0.0531
v  0.3593 -0.0237 -0.0208
v  0.3593 0.0237 -0.0208
v  0.3593 -0.0237 0.0249
v  0.3722 -0.0237 0.0442
v  0.3722 0.0237 0.0442
v  0.3593 0.0237 0.0249
v  0.3916 -0.0237 0.0572
v  0.3916 0.0237 0.0572
v  0.4372 -0.0237 0.0572
v  0.4566 -0.0237 0.0442
v  0.4566 0.0237 0.0442
v  0.4372 0.0237 0.0572
v  0.4695 -0.0237 0.0249
v  0.4695 0.0237 0.0249
v  0.4144 -0.0237 -0.0531
v  0.4144 -0.0237 -0.0745
v  0.4372 -0.0237 -0.0745
v  0.3916 -0.0237 -0.0745
v  0.3916 0.0237 -0.0745
v  0.4144 0.0237 -0.0531
v  0.4144 0.0237 -0.0745
v  0.4372 0.0237 -0.0745
v  0.4144 -0.0237 -0.1034
v  0.4619 -0.0237 -0.1034
v  0.3668 -0.0237 -0.1034
v  0.3668 0.0237 -0.1034
v  0.4144 0.0237 -0.1034
v  0.4619 0.0237 -0.1034
v  0.4144 -0.0237 -0.1967
v  0.4144 0.0237 -0.1967
v  0.3593 -0.0237 0.0021
v  0.3378 -0.0237 0.0021
v  0.3378 -0.0237 -0.0208
v  0.3378 -0.0237 0.0249
v  0.3378 0.0237 0.0249
v  0.3593 0.0237 0.0021
v  0.3378 0.0237 0.0021
v  0.3378 0.0237 -0.0208
v  0.3089 -0.0237 0.0021
v  0.3089 -0.0237 -0.0455
v  0.3089 -0.0237 0.0496
v  0.3089 0.0237 0.0496
v  0.3089 0.0237 0.0021
v  0.3089 0.0237 -0.0455
v  0.2157 -0.0237 0.0021
v  0.2157 0.0237 0.0021
v  0.4144 -0.0237 0.0572
v  0.4144 -0.0237 0.0786
v  0.3916 -0.0237 0.0786
v  0.4372 -0.0237 0.0786
v  0.4372 0.0237 0.0786
v  0.4144 0.0237 0.0572
v  0.4144 0.0237 0.0786
v  0.3916 0.0237 0.0786
v  0.4144 -0.0237 0.1076
v  0.3668 -0.0237 0.1076
v  0.4619 -0.0237 0.1076
v  0.4619 0.0237 0.1076
v  0.4144 0.0237 0.1076
v  0.3668 0.0237 0.1076
v  0.4144 -0.0237 0.2008
v  0.4144 0.0237 0.2008
v  0.4695 -0.0237 0.0021
v  0.4909 -0.0237 0.0021
v  0.4909 -0.0237 0.0249
v  0.4909 -0.0237 -0.0208
v  0.4909 0.0237 -0.0208
v  0.4695 0.0237 0.0021
v  0.4909 0.0237 0.0021
v  0.4909 0.0237 0.0249
v  0.5199 -0.0237 0.0021
v  0.5199 -0.0237 0.0496
v  0.5199 -0.0237 -0.0455
v  0.5199 0.0237 -0.0455
v  0.5199 0.0237 0.0021
v  0.5199 0.0237 0.0496
v  0.6131 -0.0237 0.0021
v  0.6131 0.0237 0.0021
v  0.4456 -0.0237 0.0021
v  0.4456 -0.0237 -0.0135
v  0.4456 -0.0237 0.0176
v  0.4394 -0.0237 0.0270
v  0.4300 -0.0237 0.0333
v  0.4144 -0.0237 0.0333
v  0.3988 -0.0237 0.0333
v  0.3894 -0.0237 0.0270
v  0.3831 -0.0237 0.0176
v  0.3831 -0.0237 0.0021
v  0.3831 -0.0237 -0.0135
v  0.3894 -0.0237 -0.0229
v  0.3988 -0.0237 -0.0292
v  0.4144 -0.0237 -0.0292
v  0.4300 -0.0237 -0.0292
v  0.4394 -0.0237 -0.0229
v  0.4394 0.0237 -0.0229
v  0.4456 0.0237 -0.0135
v  0.4300 0.0237 -0.0292
v  0.4144 0.0237 -0.0292
v  0.3988 0.0237 -0.0292
v  0.3894 0.0237 -0.0229
v  0.3831 0.0237 -0.0135
v  0.3831 0.0237 0.0021
v  0.3831 0.0237 0.0176
v  0.3894 0.0237 0.0270
v  0.3988 0.0237 0.0333
v  0.4144 0.0237 0.0333
v  0.4300 0.0237 0.0333
v  0.4394 0.0237 0.0270
v  0.4456 0.0237 0.0176
v  0.4456 0.0237 0.0021
# 120 vertices

vn 0.2629 -0.8300 -0.4919
vn 0.5276 -0.6657 -0.5276
vn 0.5276 0.6657 -0.5276
vn 0.2629 0.8300 -0.4919
vn 0.4919 -0.8300 -0.2629
vn 0.4919 0.8300 -0.2629
vn -0.4919 -0.8300 -0.2629
vn -0.5276 -0.6658 -0.5276
vn -0.5276 0.6658 -0.5276
vn -0.4919 0.8300 -0.2629
vn -0.2629 -0.8301 -0.4918
vn -0.2629 0.8301 -0.4918
vn -0.2629 -0.8300 0.4919
vn -0.5276 -0.6657 0.5276
vn -0.5276 0.6657 0.5276
vn -0.2629 0.8300 0.4919
vn -0.4919 -0.8300 0.2629
vn -0.4919 0.8300 0.2629
vn 0.4919 -0.8300 0.2629
vn 0.5276 -0.6657 0.5276
vn 0.5276 0.6657 0.5276
vn 0.4919 0.8300 0.2629
vn 0.2629 -0.8300 0.4919
vn 0.2629 0.8300 0.4919
vn 0.0000 -1.0000 -0.0000
vn 0.5704 -0.7939 0.2105
vn -0.5704 -0.7939 0.2105
vn -0.5704 0.7939 0.2105
vn 0.0000 1.0000 -0.0000
vn 0.5704 0.7939 0.2105
vn 0.7939 -0.6008 0.0938
vn -0.7939 -0.6008 0.0938
vn -0.7939 0.6008 0.0938
vn 0.7939 0.6008 0.0938
vn 0.0000 -0.5513 -0.8343
vn 0.0000 0.5513 -0.8343
vn 0.2105 -0.7939 -0.5704
vn 0.2105 -0.7939 0.5704
vn 0.2105 0.7939 0.5704
vn 0.2105 0.7939 -0.5704
vn 0.0938 -0.6008 -0.7939
vn 0.0938 -0.6008 0.7939
vn 0.0938 0.6008 0.7939
vn 0.0938 0.6008 -0.7939
vn -0.8343 -0.5513 -0.0000
vn -0.8343 0.5513 -0.0000
vn -0.5704 -0.7939 -0.2105
vn 0.5704 -0.7939 -0.2105
vn 0.5704 0.7939 -0.2105
vn -0.5704 0.7939 -0.2105
vn -0.7939 -0.6008 -0.0938
vn 0.7939 -0.6008 -0.0938
vn 0.7939 0.6008 -0.0938
vn -0.7939 0.6008 -0.0938
vn -0.0000 -0.5513 0.8343
vn -0.0000 0.5513 0.8343
vn -0.2105 -0.7939 0.5704
vn -0.2105 -0.7939 -0.5704
vn -0.2105 0.7939 -0.5704
vn -0.2105 0.7939 0.5704
vn -0.0938 -0.6008 0.7939
vn -0.0938 -0.6008 -0.7939
vn -0.0938 0.6008 -0.7939
vn -0.0938 0.6008 0.7939
vn 0.8343 -0.5513 0.0000
vn 0.8343 0.5513 0.0000
vn -0.7071 -0.7071 0.0000
vn -0.6004 -0.7787 0.1821
vn -0.6004 -0.7786 -0.1821
vn -0.4647 -0.7538 -0.4647
vn -0.1821 -0.7786 -0.6004
vn 0.0000 -0.7071 -0.7071
vn 0.1821 -0.7786 -0.6004
vn 0.4647 -0.7538 -0.4647
vn 0.6004 -0.7786 -0.1821
vn 0.7071 -0.7071 0.0000
vn 0.6004 -0.7786 0.1821
vn 0.4647 -0.7538 0.4647
vn 0.1821 -0.7786 0.6004
vn -0.0000 -0.7071 0.7071
vn -0.1821 -0.7786 0.6004
vn -0.4646 -0.7538 0.4647
vn -0.4646 0.7538 0.4647
vn -0.6004 0.7787 0.1821
vn -0.1821 0.7786 0.6004
vn 0.0000 0.7071 0.7071
vn 0.1821 0.7786 0.6004
vn 0.4647 0.7538 0.4647
vn 0.6004 0.7786 0.1821
vn 0.7071 0.7071 0.0000
vn 0.6004 0.7786 -0.1821
vn 0.4647 0.7538 -0.4646
vn 0.1821 0.7787 -0.6004
vn -0.0000 0.7071 -0.7071
vn -0.1821 0.7786 -0.6004
vn -0.4647 0.7538 -0.4647
vn -0.6004 0.7786 -0.1821
vn -0.7071 0.7071 0.0000
# 98 vertex normals

vt 0.8125 0.0000 1.0000
vt 0.8750 0.0000 1.0000
vt 0.8750 1.0000 1.0000
vt 0.8125 1.0000 1.0000
vt 0.9375 0.0000 1.0000
vt 0.9375 1.0000 1.0000
vt 0.0625 0.0000 1.0000
vt 0.1250 0.0000 1.0000
vt 0.1250 1.0000 1.0000
vt 0.0625 1.0000 1.0000
vt 0.1875 0.0000 1.0000
vt 0.1875 1.0000 1.0000
vt 0.3125 0.0000 1.0000
vt 0.3750 0.0000 1.0000
vt 0.3750 1.0000 1.0000
vt 0.3125 1.0000 1.0000
vt 0.4375 0.0000 1.0000
vt 0.4375 1.0000 1.0000
vt 0.5625 0.0000 1.0000
vt 0.6250 0.0000 1.0000
vt 0.6250 1.0000 1.0000
vt 0.5625 1.0000 1.0000
vt 0.6875 0.0000 1.0000
vt 0.6875 1.0000 1.0000
vt -0.0625 0.0000 1.0000
vt 0.0000 0.0000 1.0000
vt 0.0000 1.0000 1.0000
vt -0.0625 1.0000 1.0000
vt 0.7500 0.0000 1.0000
vt 0.4237 0.0000 0.1989
vt 0.2621 0.0000 -0.1989
vt 0.1367 0.0000 -0.5665
vt 0.0666 0.0000 -0.8478
vt 0.0625 0.0000 -1.0000
vt 0.1250 0.0000 -1.0000
vt 0.2446 0.0000 -0.8478
vt 0.4031 0.0000 -0.5665
vt 0.5763 0.0000 -0.1989
vt 0.7379 0.0000 0.1989
vt 0.8633 0.0000 0.5665
vt 0.9334 0.0000 0.8478
vt 0.9334 1.0000 0.8478
vt 0.8633 1.0000 0.5665
vt 0.7379 1.0000 0.1989
vt 0.5763 1.0000 -0.1989
vt 0.4031 1.0000 -0.5665
vt 0.2446 1.0000 -0.8478
vt 0.1250 1.0000 -1.0000
vt 0.0625 1.0000 -1.0000
vt 0.0666 1.0000 -0.8478
vt 0.1367 1.0000 -0.5665
vt 0.2621 1.0000 -0.1989
vt 0.7500 1.0000 1.0000
# 53 texture coords

o Cylinder002
g Cylinder002
usemtl wire_027177148
s 1
f 19/23/19 20/24/20 21/25/21 22/26/22 
f 20/24/20 23/27/23 24/28/24 21/25/21 
f 25/29/25 26/30/26 27/31/27 28/32/28 
f 26/30/26 29/33/29 30/34/30 27/31/27 
f 31/35/31 32/36/32 33/37/33 34/38/34 
f 32/36/32 35/39/35 36/40/36 33/37/33 
f 37/41/37 38/42/38 39/43/39 40/44/40 
f 38/42/38 41/45/41 42/46/42 39/43/39 
s 2
f 23/47/23 43/48/43 44/48/43 45/47/44 
f 43/48/43 25/29/25 46/29/45 44/48/43 
s 4
f 25/29/25 28/32/28 47/32/46 46/29/45 
s 2
f 28/32/28 48/49/47 49/49/47 47/32/46 
f 48/49/47 24/50/24 50/50/48 49/49/47 
s 4
f 24/50/24 23/47/23 45/47/44 50/50/48 
s 2
f 44/48/43 51/48/43 52/47/49 45/47/44 
f 46/29/45 53/29/50 51/48/43 44/48/43 
s 4
f 47/32/46 54/32/51 53/29/50 46/29/45 
s 2
f 49/49/47 55/49/47 54/32/51 47/32/46 
f 50/50/48 56/50/52 55/49/47 49/49/47 
s 4
f 45/47/44 52/47/49 56/50/52 50/50/48 
s 2
f 51/48/43 57/48/53 52/47/49 
f 53/29/50 57/48/53 51/48/43 
s 1
f 54/32/51 58/49/54 57/48/53 53/29/50 
s 2
f 55/49/47 58/49/54 54/32/51 
f 56/50/52 58/49/54 55/49/47 
s 8
f 52/47/49 57/48/53 58/49/54 56/50/52 
s 2
f 29/47/29 59/48/43 60/48/43 61/47/55 
f 59/48/43 31/29/31 62/29/56 60/48/43 
s 4
f 31/29/31 34/32/34 63/32/57 62/29/56 
s 2
f 34/32/34 64/49/47 65/49/47 63/32/57 
f 64/49/47 30/50/30 66/50/58 65/49/47 
s 4
f 30/50/30 29/47/29 61/47/55 66/50/58 
s 2
f 60/48/43 67/48/43 68/47/59 61/47/55 
f 62/29/56 69/29/60 67/48/43 60/48/43 
s 4
f 63/32/57 70/32/61 69/29/60 62/29/56 
s 2
f 65/49/47 71/49/47 70/32/61 63/32/57 
f 66/50/58 72/50/62 71/49/47 65/49/47 
s 4
f 61/47/55 68/47/59 72/50/62 66/50/58 
s 2
f 67/48/43 73/48/63 68/47/59 
f 69/29/60 73/48/63 67/48/43 
s 1
f 70/32/61 74/49/64 73/48/63 69/29/60 
s 2
f 71/49/47 74/49/64 70/32/61 
f 72/50/62 74/49/64 71/49/47 
s 8
f 68/47/59 73/48/63 74/49/64 72/50/62 
s 2
f 35/47/35 75/48/43 76/48/43 77/47/65 
f 75/48/43 37/29/37 78/29/66 76/48/43 
s 4
f 37/29/37 40/32/40 79/32/67 78/29/66 
s 2
f 40/32/40 80/49/47 81/49/47 79/32/67 
f 80/49/47 36/50/36 82/50/68 81/49/47 
s 4
f 36/50/36 35/47/35 77/47/65 82/50/68 
s 2
f 76/48/43 83/48/43 84/47/69 77/47/65 
f 78/29/66 85/29/70 83/48/43 76/48/43 
s 4
f 79/32/67 86/32/71 85/29/70 78/29/66 
s 2
f 81/49/47 87/49/47 86/32/71 79/32/67 
f 82/50/68 88/50/72 87/49/47 81/49/47 
s 4
f 77/47/65 84/47/69 88/50/72 82/50/68 
s 2
f 83/48/43 89/48/73 84/47/69 
f 85/29/70 89/48/73 83/48/43 
s 1
f 86/32/71 90/49/74 89/48/73 85/29/70 
s 2
f 87/49/47 90/49/74 86/32/71 
f 88/50/72 90/49/74 87/49/47 
s 8
f 84/47/69 89/48/73 90/49/74 88/50/72 
s 2
f 41/47/41 91/48/43 92/48/43 93/47/75 
f 91/48/43 19/29/19 94/29/76 92/48/43 
s 4
f 19/29/19 22/32/22 95/32/77 94/29/76 
s 2
f 22/32/22 96/49/47 97/49/47 95/32/77 
f 96/49/47 42/50/42 98/50/78 97/49/47 
s 4
f 42/50/42 41/47/41 93/47/75 98/50/78 
s 2
f 92/48/43 99/48/43 100/47/79 93/47/75 
f 94/29/76 101/29/80 99/48/43 92/48/43 
s 4
f 95/32/77 102/32/81 101/29/80 94/29/76 
s 2
f 97/49/47 103/49/47 102/32/81 95/32/77 
f 98/50/78 104/50/82 103/49/47 97/49/47 
s 4
f 93/47/75 100/47/79 104/50/82 98/50/78 
s 2
f 99/48/43 105/48/83 100/47/79 
f 101/29/80 105/48/83 99/48/43 
s 1
f 102/32/81 106/49/84 105/48/83 101/29/80 
s 2
f 103/49/47 106/49/84 102/32/81 
f 104/50/82 106/49/84 103/49/47 
s 8
f 100/47/79 105/48/83 106/49/84 104/50/82 
s 2
f 19/23/19 91/51/43 107/51/85 108/23/86 
f 91/51/43 41/52/41 109/52/87 107/51/85 
f 41/52/41 38/53/38 110/53/88 109/52/87 
f 38/53/38 37/54/37 111/54/89 110/53/88 
f 37/54/37 75/55/43 112/55/90 111/54/89 
f 75/55/43 35/56/35 113/56/91 112/55/90 
f 35/56/35 32/57/32 114/57/92 113/56/91 
f 32/57/32 31/58/31 115/58/93 114/57/92 
f 31/58/31 59/59/43 116/59/94 115/58/93 
f 59/59/43 29/60/29 117/60/95 116/59/94 
f 29/60/29 26/61/26 118/61/96 117/60/95 
f 26/61/26 25/62/25 119/62/97 118/61/96 
f 25/62/25 43/63/43 120/63/98 119/62/97 
f 43/63/43 23/27/23 121/27/99 120/63/98 
f 23/27/23 20/24/20 122/24/100 121/27/99 
f 20/24/20 19/23/19 108/23/86 122/24/100 
f 22/26/22 21/25/21 123/25/101 124/26/102 
f 21/25/21 24/28/24 125/28/103 123/25/101 
f 24/28/24 48/64/47 126/64/104 125/28/103 
f 48/64/47 28/65/28 127/65/105 126/64/104 
f 28/65/28 27/66/27 128/66/106 127/65/105 
f 27/66/27 30/67/30 129/67/107 128/66/106 
f 30/67/30 64/68/47 130/68/108 129/67/107 
f 64/68/47 34/69/34 131/69/109 130/68/108 
f 34/69/34 33/70/33 132/70/110 131/69/109 
f 33/70/33 36/71/36 133/71/111 132/70/110 
f 36/71/36 80/72/47 134/72/112 133/71/111 
f 80/72/47 40/73/40 135/73/113 134/72/112 
f 40/73/40 39/74/39 136/74/114 135/73/113 
f 39/74/39 42/46/42 137/46/115 136/74/114 
f 42/46/42 96/75/47 138/75/116 137/46/115 
f 96/75/47 22/26/22 124/26/102 138/75/116 
s 1
f 130/29/108 131/29/109 115/49/93 116/50/94 
f 129/47/107 130/29/108 116/50/94 117/50/95 
f 128/48/106 129/47/107 117/50/95 118/48/96 
f 127/48/105 128/48/106 118/48/96 119/47/97 
f 126/47/104 127/48/105 119/47/97 120/29/98 
f 125/49/103 126/47/104 120/29/98 121/32/99 
f 123/48/101 125/49/103 121/32/99 122/49/100 
f 124/50/102 123/48/101 122/49/100 108/48/86 
f 138/48/116 124/50/102 108/48/86 107/48/85 
f 137/50/115 138/48/116 107/48/85 109/47/87 
f 136/50/114 137/50/115 109/47/87 110/29/88 
f 135/49/113 136/50/114 110/29/88 111/29/89 
f 134/49/112 135/49/113 111/29/89 112/32/90 
f 133/32/111 134/49/112 112/32/90 113/32/91 
f 132/32/110 133/32/111 113/32/91 114/49/92 
f 131/29/109 132/32/110 114/49/92 115/49/93 
# 112 polygons - 16 triangles

#
# object Box001
#

v  -0.5435 -0.0193 0.1468
v  -0.5046 -0.0193 0.0562
v  -0.4482 -0.0193 0.0515
v  -0.4579 -0.0193 0.1182
v  -0.4010 -0.0193 0.0495
v  -0.4010 -0.0193 0.1134
v  -0.3539 -0.0193 0.0515
v  -0.3441 -0.0193 0.1182
v  -0.2974 -0.0193 0.0562
v  -0.2586 -0.0193 0.1468
v  -0.5002 -0.0193 0.0044
v  -0.4462 -0.0193 0.0044
v  -0.4010 -0.0193 0.0044
v  -0.3559 -0.0193 0.0044
v  -0.3018 -0.0193 0.0044
v  -0.5046 -0.0193 -0.0474
v  -0.4482 -0.0193 -0.0428
v  -0.4010 -0.0193 -0.0408
v  -0.3539 -0.0193 -0.0428
v  -0.2974 -0.0193 -0.0474
v  -0.5435 -0.0193 -0.1381
v  -0.4579 -0.0193 -0.1095
v  -0.4010 -0.0193 -0.1047
v  -0.3441 -0.0193 -0.1095
v  -0.2586 -0.0193 -0.1381
v  -0.5435 0.0193 0.1468
v  -0.4579 0.0193 0.1182
v  -0.4482 0.0193 0.0515
v  -0.5046 0.0193 0.0562
v  -0.4010 0.0193 0.1134
v  -0.4010 0.0193 0.0495
v  -0.3441 0.0193 0.1182
v  -0.3539 0.0193 0.0515
v  -0.2586 0.0193 0.1468
v  -0.2974 0.0193 0.0562
v  -0.4462 0.0193 0.0044
v  -0.5002 0.0193 0.0044
v  -0.4010 0.0193 0.0044
v  -0.3559 0.0193 0.0044
v  -0.3018 0.0193 0.0044
v  -0.4482 0.0193 -0.0428
v  -0.5046 0.0193 -0.0474
v  -0.4010 0.0193 -0.0408
v  -0.3539 0.0193 -0.0428
v  -0.2974 0.0193 -0.0474
v  -0.4579 0.0193 -0.1095
v  -0.5435 0.0193 -0.1381
v  -0.4010 0.0193 -0.1047
v  -0.3441 0.0193 -0.1095
v  -0.2586 0.0193 -0.1381
v  -0.4685 -0.0000 0.1394
v  -0.5700 0.0000 0.1733
v  -0.4010 -0.0000 0.1337
v  -0.3335 -0.0000 0.1394
v  -0.2321 0.0000 0.1733
v  -0.2782 -0.0000 0.0658
v  -0.2834 -0.0000 0.0044
v  -0.2782 -0.0000 -0.0571
v  -0.2321 0.0000 -0.1646
v  -0.3335 -0.0000 -0.1307
v  -0.4010 -0.0000 -0.1250
v  -0.4685 -0.0000 -0.1307
v  -0.5700 0.0000 -0.1646
v  -0.5239 -0.0000 -0.0571
v  -0.5187 -0.0000 0.0044
v  -0.5239 -0.0000 0.0658
# 66 vertices

vn -0.2593 -0.9481 0.1840
vn -0.3183 -0.9459 -0.0623
vn 0.0000 -1.0000 -0.0000
vn 0.0507 -0.9515 0.3033
vn 0.0000 -0.9535 0.3014
vn -0.0507 -0.9515 0.3033
vn 0.3183 -0.9459 -0.0623
vn 0.2593 -0.9481 0.1840
vn -0.3223 -0.9466 -0.0000
vn 0.3223 -0.9466 -0.0000
vn -0.3183 -0.9459 0.0623
vn 0.3183 -0.9459 0.0623
vn -0.2593 -0.9481 -0.1840
vn 0.0507 -0.9515 -0.3033
vn 0.0000 -0.9535 -0.3014
vn -0.0507 -0.9515 -0.3033
vn 0.2593 -0.9481 -0.1840
vn -0.2593 0.9481 0.1840
vn 0.0507 0.9515 0.3033
vn 0.0000 1.0000 -0.0000
vn -0.3183 0.9459 -0.0623
vn 0.0000 0.9535 0.3014
vn -0.0507 0.9515 0.3033
vn 0.2593 0.9481 0.1840
vn 0.3183 0.9459 -0.0623
vn -0.3223 0.9466 -0.0000
vn 0.3223 0.9466 -0.0000
vn -0.3183 0.9459 0.0623
vn 0.3183 0.9459 0.0623
vn 0.0507 0.9515 -0.3033
vn -0.2593 0.9481 -0.1840
vn 0.0000 0.9535 -0.3014
vn -0.0507 0.9515 -0.3033
vn 0.2593 0.9481 -0.1840
vn 0.2461 0.0000 0.9692
vn -0.7271 -0.0000 0.6865
vn 0.0000 0.0000 1.0000
vn -0.2461 0.0000 0.9692
vn 0.7271 -0.0000 0.6865
vn 0.9529 0.0000 -0.3033
vn 1.0000 0.0000 -0.0000
vn 0.9529 0.0000 0.3033
vn 0.7271 -0.0000 -0.6865
vn -0.2461 0.0000 -0.9692
vn 0.0000 0.0000 -1.0000
vn 0.2461 0.0000 -0.9692
vn -0.7271 -0.0000 -0.6865
vn -0.9529 0.0000 0.3033
vn -1.0000 0.0000 -0.0000
vn -0.9529 0.0000 -0.3033
# 50 vertex normals

vt 1.0000 0.0000 0.0000
vt 1.0000 0.2500 0.0000
vt 0.7500 0.2500 0.0000
vt 0.7500 0.0000 0.0000
vt 0.5000 0.2500 0.0000
vt 0.5000 0.0000 0.0000
vt 0.2500 0.2500 0.0000
vt 0.2500 0.0000 0.0000
vt 0.0000 0.2500 0.0000
vt 0.0000 0.0000 0.0000
vt 1.0000 0.5000 0.0000
vt 0.7500 0.5000 0.0000
vt 0.5000 0.5000 0.0000
vt 0.2500 0.5000 0.0000
vt 0.0000 0.5000 0.0000
vt 1.0000 0.7500 0.0000
vt 0.7500 0.7500 0.0000
vt 0.5000 0.7500 0.0000
vt 0.2500 0.7500 0.0000
vt 0.0000 0.7500 0.0000
vt 1.0000 1.0000 0.0000
vt 0.7500 1.0000 0.0000
vt 0.5000 1.0000 0.0000
vt 0.2500 1.0000 0.0000
vt 0.0000 1.0000 0.0000
# 25 texture coords

o Box001
g Box001
usemtl wire_153228153
s 1
f 139/76/117 140/77/118 141/78/119 142/79/120 
f 142/79/120 141/78/119 143/80/119 144/81/121 
f 144/81/121 143/80/119 145/82/119 146/83/122 
f 146/83/122 145/82/119 147/84/123 148/85/124 
f 140/77/118 149/86/125 150/87/119 141/78/119 
f 141/78/119 150/87/119 151/88/119 143/80/119 
f 143/80/119 151/88/119 152/89/119 145/82/119 
f 145/82/119 152/89/119 153/90/126 147/84/123 
f 149/86/125 154/91/127 155/92/119 150/87/119 
f 150/87/119 155/92/119 156/93/119 151/88/119 
f 151/88/119 156/93/119 157/94/119 152/89/119 
f 152/89/119 157/94/119 158/95/128 153/90/126 
f 154/91/127 159/96/129 160/97/130 155/92/119 
f 155/92/119 160/97/130 161/98/131 156/93/119 
f 156/93/119 161/98/131 162/99/132 157/94/119 
f 157/94/119 162/99/132 163/100/133 158/95/128 
f 164/85/134 165/83/135 166/82/136 167/84/137 
f 165/83/135 168/81/138 169/80/136 166/82/136 
f 168/81/138 170/79/139 171/78/136 169/80/136 
f 170/79/139 172/76/140 173/77/141 171/78/136 
f 167/84/137 166/82/136 174/89/136 175/90/142 
f 166/82/136 169/80/136 176/88/136 174/89/136 
f 169/80/136 171/78/136 177/87/136 176/88/136 
f 171/78/136 173/77/141 178/86/143 177/87/136 
f 175/90/142 174/89/136 179/94/136 180/95/144 
f 174/89/136 176/88/136 181/93/136 179/94/136 
f 176/88/136 177/87/136 182/92/136 181/93/136 
f 177/87/136 178/86/143 183/91/145 182/92/136 
f 180/95/144 179/94/136 184/99/146 185/100/147 
f 179/94/136 181/93/136 186/98/148 184/99/146 
f 181/93/136 182/92/136 187/97/149 186/98/148 
f 182/92/136 183/91/145 188/96/150 187/97/149 
s 2
f 139/85/117 142/83/120 189/89/151 190/90/152 
f 142/83/120 144/81/121 191/88/153 189/89/151 
f 144/81/121 146/79/122 192/87/154 191/88/153 
f 146/79/122 148/76/124 193/86/155 192/87/154 
s 4
f 148/85/124 147/83/123 194/89/156 193/90/155 
f 147/83/123 153/81/126 195/88/157 194/89/156 
f 153/81/126 158/79/128 196/87/158 195/88/157 
f 158/79/128 163/76/133 197/86/159 196/87/158 
s 2
f 163/85/133 162/83/132 198/89/160 197/90/159 
f 162/83/132 161/81/131 199/88/161 198/89/160 
f 161/81/131 160/79/130 200/87/162 199/88/161 
f 160/79/130 159/76/129 201/86/163 200/87/162 
s 4
f 159/85/129 154/83/127 202/89/164 201/90/163 
f 154/83/127 149/81/125 203/88/165 202/89/164 
f 149/81/125 140/79/118 204/87/166 203/88/165 
f 140/79/118 139/76/117 190/86/152 204/87/166 
s 2
f 189/89/151 165/99/135 164/100/134 190/90/152 
f 191/88/153 168/98/138 165/99/135 189/89/151 
f 192/87/154 170/97/139 168/98/138 191/88/153 
f 193/86/155 172/96/140 170/97/139 192/87/154 
s 4
f 194/89/156 173/99/141 172/100/140 193/90/155 
f 195/88/157 178/98/143 173/99/141 194/89/156 
f 196/87/158 183/97/145 178/98/143 195/88/157 
f 197/86/159 188/96/150 183/97/145 196/87/158 
s 2
f 198/89/160 187/99/149 188/100/150 197/90/159 
f 199/88/161 186/98/148 187/99/149 198/89/160 
f 200/87/162 184/97/146 186/98/148 199/88/161 
f 201/86/163 185/96/147 184/97/146 200/87/162 
s 4
f 202/89/164 180/99/144 185/100/147 201/90/163 
f 203/88/165 175/98/142 180/99/144 202/89/164 
f 204/87/166 167/97/137 175/98/142 203/88/165 
f 190/86/152 164/96/134 167/97/137 204/87/166 
# 64 polygons

